<mxfile host="Electron" agent="Mozilla/5.0 (Windows NT 10.0; Win64; x64) AppleWebKit/537.36 (KHTML, like Gecko) draw.io/28.2.5 Chrome/138.0.7204.251 Electron/37.6.1 Safari/537.36" version="28.2.5">
  <diagram name="Page-1" id="ZL28f_E0qrFnoWme4G1S">
    <mxGraphModel dx="771" dy="663" grid="1" gridSize="10" guides="1" tooltips="1" connect="1" arrows="1" fold="1" page="1" pageScale="1" pageWidth="850" pageHeight="1100" math="0" shadow="0">
      <root>
        <mxCell id="0" />
        <mxCell id="1" parent="0" />
        <mxCell id="rEQN2-t7_I1dHTmr0usV-6" style="edgeStyle=orthogonalEdgeStyle;rounded=0;orthogonalLoop=1;jettySize=auto;html=1;exitX=1;exitY=0.5;exitDx=0;exitDy=0;entryX=0;entryY=0.5;entryDx=0;entryDy=0;endArrow=none;endFill=0;" edge="1" parent="1" source="rEQN2-t7_I1dHTmr0usV-1" target="rEQN2-t7_I1dHTmr0usV-4">
          <mxGeometry relative="1" as="geometry" />
        </mxCell>
        <mxCell id="rEQN2-t7_I1dHTmr0usV-1" value="Stops" style="whiteSpace=wrap;html=1;align=center;" vertex="1" parent="1">
          <mxGeometry x="370" y="565" width="100" height="40" as="geometry" />
        </mxCell>
        <mxCell id="rEQN2-t7_I1dHTmr0usV-4" value="stop_key" style="ellipse;whiteSpace=wrap;html=1;align=center;fontStyle=4;" vertex="1" parent="1">
          <mxGeometry x="510" y="565" width="100" height="40" as="geometry" />
        </mxCell>
        <mxCell id="rEQN2-t7_I1dHTmr0usV-7" style="edgeStyle=orthogonalEdgeStyle;rounded=0;orthogonalLoop=1;jettySize=auto;html=1;entryX=0.5;entryY=0;entryDx=0;entryDy=0;endArrow=none;endFill=0;exitX=0.5;exitY=1;exitDx=0;exitDy=0;" edge="1" parent="1" target="rEQN2-t7_I1dHTmr0usV-9" source="rEQN2-t7_I1dHTmr0usV-1">
          <mxGeometry relative="1" as="geometry">
            <mxPoint x="440" y="685" as="sourcePoint" />
            <mxPoint x="530" y="675" as="targetPoint" />
          </mxGeometry>
        </mxCell>
        <mxCell id="rEQN2-t7_I1dHTmr0usV-9" value="stops" style="ellipse;whiteSpace=wrap;html=1;align=center;" vertex="1" parent="1">
          <mxGeometry x="370" y="635" width="100" height="40" as="geometry" />
        </mxCell>
        <mxCell id="rEQN2-t7_I1dHTmr0usV-15" style="edgeStyle=orthogonalEdgeStyle;rounded=0;orthogonalLoop=1;jettySize=auto;html=1;exitX=0;exitY=0.5;exitDx=0;exitDy=0;entryX=1;entryY=0.5;entryDx=0;entryDy=0;endArrow=none;endFill=0;" edge="1" parent="1" source="rEQN2-t7_I1dHTmr0usV-11" target="rEQN2-t7_I1dHTmr0usV-14">
          <mxGeometry relative="1" as="geometry" />
        </mxCell>
        <mxCell id="rEQN2-t7_I1dHTmr0usV-11" value="Routes" style="whiteSpace=wrap;html=1;align=center;" vertex="1" parent="1">
          <mxGeometry x="410" y="70" width="100" height="40" as="geometry" />
        </mxCell>
        <mxCell id="rEQN2-t7_I1dHTmr0usV-14" value="routes" style="ellipse;whiteSpace=wrap;html=1;align=center;" vertex="1" parent="1">
          <mxGeometry x="280" y="70" width="100" height="40" as="geometry" />
        </mxCell>
        <mxCell id="rEQN2-t7_I1dHTmr0usV-20" style="edgeStyle=orthogonalEdgeStyle;rounded=0;orthogonalLoop=1;jettySize=auto;html=1;exitX=1;exitY=0.5;exitDx=0;exitDy=0;entryX=0.5;entryY=1;entryDx=0;entryDy=0;endArrow=classic;endFill=1;" edge="1" parent="1" source="rEQN2-t7_I1dHTmr0usV-19" target="rEQN2-t7_I1dHTmr0usV-11">
          <mxGeometry relative="1" as="geometry" />
        </mxCell>
        <mxCell id="rEQN2-t7_I1dHTmr0usV-22" style="edgeStyle=orthogonalEdgeStyle;rounded=0;orthogonalLoop=1;jettySize=auto;html=1;exitX=0;exitY=0.5;exitDx=0;exitDy=0;endArrow=none;endFill=0;" edge="1" parent="1" source="rEQN2-t7_I1dHTmr0usV-19">
          <mxGeometry relative="1" as="geometry">
            <mxPoint x="230" y="260.13043478260875" as="targetPoint" />
          </mxGeometry>
        </mxCell>
        <mxCell id="rEQN2-t7_I1dHTmr0usV-23" style="edgeStyle=orthogonalEdgeStyle;rounded=0;orthogonalLoop=1;jettySize=auto;html=1;exitX=0;exitY=0.75;exitDx=0;exitDy=0;endArrow=none;endFill=0;" edge="1" parent="1" source="rEQN2-t7_I1dHTmr0usV-19">
          <mxGeometry relative="1" as="geometry">
            <mxPoint x="270" y="310" as="targetPoint" />
          </mxGeometry>
        </mxCell>
        <mxCell id="rEQN2-t7_I1dHTmr0usV-24" style="edgeStyle=orthogonalEdgeStyle;rounded=0;orthogonalLoop=1;jettySize=auto;html=1;exitX=0.5;exitY=1;exitDx=0;exitDy=0;endArrow=none;endFill=0;" edge="1" parent="1" source="rEQN2-t7_I1dHTmr0usV-19">
          <mxGeometry relative="1" as="geometry">
            <mxPoint x="409.608695652174" y="370" as="targetPoint" />
          </mxGeometry>
        </mxCell>
        <mxCell id="rEQN2-t7_I1dHTmr0usV-28" style="edgeStyle=orthogonalEdgeStyle;rounded=0;orthogonalLoop=1;jettySize=auto;html=1;exitX=0;exitY=0.75;exitDx=0;exitDy=0;endArrow=none;endFill=0;" edge="1" parent="1" source="rEQN2-t7_I1dHTmr0usV-19">
          <mxGeometry relative="1" as="geometry">
            <mxPoint x="310" y="350" as="targetPoint" />
          </mxGeometry>
        </mxCell>
        <mxCell id="rEQN2-t7_I1dHTmr0usV-29" style="edgeStyle=orthogonalEdgeStyle;rounded=0;orthogonalLoop=1;jettySize=auto;html=1;exitX=0.5;exitY=1;exitDx=0;exitDy=0;endArrow=none;endFill=0;" edge="1" parent="1" source="rEQN2-t7_I1dHTmr0usV-19">
          <mxGeometry relative="1" as="geometry">
            <mxPoint x="489.9999999999999" y="350" as="targetPoint" />
          </mxGeometry>
        </mxCell>
        <mxCell id="rEQN2-t7_I1dHTmr0usV-30" style="edgeStyle=orthogonalEdgeStyle;rounded=0;orthogonalLoop=1;jettySize=auto;html=1;exitX=0.5;exitY=1;exitDx=0;exitDy=0;endArrow=none;endFill=0;" edge="1" parent="1" source="rEQN2-t7_I1dHTmr0usV-19">
          <mxGeometry relative="1" as="geometry">
            <mxPoint x="570" y="310" as="targetPoint" />
          </mxGeometry>
        </mxCell>
        <mxCell id="rEQN2-t7_I1dHTmr0usV-31" style="edgeStyle=orthogonalEdgeStyle;rounded=0;orthogonalLoop=1;jettySize=auto;html=1;exitX=1;exitY=0.5;exitDx=0;exitDy=0;entryX=0;entryY=0.5;entryDx=0;entryDy=0;endArrow=none;endFill=0;" edge="1" parent="1" source="rEQN2-t7_I1dHTmr0usV-19" target="rEQN2-t7_I1dHTmr0usV-33">
          <mxGeometry relative="1" as="geometry">
            <mxPoint x="650" y="260.13043478260875" as="targetPoint" />
          </mxGeometry>
        </mxCell>
        <mxCell id="rEQN2-t7_I1dHTmr0usV-19" value="" style="triangle;whiteSpace=wrap;html=1;" vertex="1" parent="1">
          <mxGeometry x="380" y="220" width="60" height="80" as="geometry" />
        </mxCell>
        <mxCell id="rEQN2-t7_I1dHTmr0usV-38" style="edgeStyle=orthogonalEdgeStyle;rounded=0;orthogonalLoop=1;jettySize=auto;html=1;exitX=0.5;exitY=1;exitDx=0;exitDy=0;entryX=0.5;entryY=0;entryDx=0;entryDy=0;endArrow=none;endFill=0;" edge="1" parent="1" source="rEQN2-t7_I1dHTmr0usV-33" target="rEQN2-t7_I1dHTmr0usV-37">
          <mxGeometry relative="1" as="geometry" />
        </mxCell>
        <mxCell id="rEQN2-t7_I1dHTmr0usV-33" value="Yosemite Express" style="whiteSpace=wrap;html=1;align=center;" vertex="1" parent="1">
          <mxGeometry x="610" y="240" width="100" height="40" as="geometry" />
        </mxCell>
        <mxCell id="rEQN2-t7_I1dHTmr0usV-36" style="edgeStyle=orthogonalEdgeStyle;rounded=0;orthogonalLoop=1;jettySize=auto;html=1;exitX=0;exitY=0.5;exitDx=0;exitDy=0;entryX=1;entryY=0.5;entryDx=0;entryDy=0;endArrow=none;endFill=0;" edge="1" parent="1" source="rEQN2-t7_I1dHTmr0usV-34" target="rEQN2-t7_I1dHTmr0usV-33">
          <mxGeometry relative="1" as="geometry" />
        </mxCell>
        <mxCell id="rEQN2-t7_I1dHTmr0usV-34" value="stop_key" style="ellipse;whiteSpace=wrap;html=1;align=center;fontStyle=4;" vertex="1" parent="1">
          <mxGeometry x="730" y="240" width="100" height="40" as="geometry" />
        </mxCell>
        <mxCell id="rEQN2-t7_I1dHTmr0usV-37" value="time" style="ellipse;whiteSpace=wrap;html=1;align=center;" vertex="1" parent="1">
          <mxGeometry x="630" y="310" width="100" height="40" as="geometry" />
        </mxCell>
      </root>
    </mxGraphModel>
  </diagram>
</mxfile>
